<?xml version="1.0" encoding="UTF-8"?> <svg xmlns="http://www.w3.org/2000/svg" width="200" height="42" viewBox="0 0 200 42" fill="none"><path fill-rule="evenodd" clip-rule="evenodd" d="M32.1343 39.3522C33.7758 32.0323 38.1491 25.5771 44.7757 21.857C51.4024 18.1369 58.9707 17.8889 65.7224 20.4972C64.0809 27.8171 59.7076 34.2726 53.081 37.9924C46.4543 41.7125 38.886 41.9605 32.1343 39.3522ZM64.0299 21.4471C57.8554 19.4164 51.2161 19.9121 45.4428 23.153C39.6696 26.3941 35.611 31.9036 33.8265 38.4023C40.0013 40.433 46.6409 39.9373 52.4138 36.6964C58.1871 33.4556 62.2457 27.9458 64.0299 21.4471Z" fill="#04CD4E"></path><path fill-rule="evenodd" clip-rule="evenodd" d="M32.4326 39.6917C30.2447 32.5296 30.8263 24.6452 34.6859 17.9011C38.5456 11.1572 44.9193 6.88818 51.9962 5.50903C53.2749 9.69422 53.6072 14.1262 52.8928 18.4329C52.3996 18.4974 51.9079 18.5768 51.4181 18.6713C52.1173 14.9144 51.9718 11.0108 51.0104 7.23104C44.713 8.79726 39.2581 12.7805 35.8954 18.6561C32.5327 24.5317 31.7568 31.4355 33.4181 37.9694C39.7158 36.4032 45.171 32.4199 48.5334 26.5446C49.3874 25.0526 50.074 23.4944 50.5969 21.8931C51.1225 21.7573 51.6525 21.6412 52.185 21.5447C51.6096 23.5228 50.7992 25.4538 49.7432 27.2994C45.8835 34.0435 39.5095 38.3123 32.4326 39.6917Z" fill="#04CD4E"></path><path fill-rule="evenodd" clip-rule="evenodd" d="M32.8553 39.8228C27.4576 34.8481 24.0828 27.7695 24.0815 19.9129C24.0806 12.0563 27.4535 4.97636 32.8497 0C35.9669 2.87345 38.4093 6.4484 39.9174 10.4697C39.5292 10.7984 39.1499 11.139 38.7802 11.4912C37.5306 7.93786 35.5033 4.70608 32.8497 2.00648C28.2142 6.72546 25.4896 13.0677 25.4908 19.9129C25.4917 26.7573 28.2179 33.099 32.855 37.8164C37.4905 33.0977 40.2151 26.7554 40.2142 19.9103C40.2139 18.1386 40.0307 16.4011 39.6793 14.7162C40.0595 14.3063 40.4536 13.9109 40.8603 13.5309C41.3585 15.5774 41.6229 17.7132 41.6232 19.9103C41.6244 27.7669 38.2512 34.8465 32.8553 39.8228Z" fill="#04CD4E"></path><path fill-rule="evenodd" clip-rule="evenodd" d="M33.2828 39.7092C26.2059 38.3317 19.8306 34.0649 15.9691 27.322C12.1073 20.5792 11.5235 12.6952 13.7099 5.53235C17.7688 6.32223 21.5966 8.06327 24.8522 10.6764C24.6941 11.1773 24.5498 11.6837 24.4198 12.1943C21.6071 9.82591 18.2885 8.1468 14.696 7.25435C13.036 13.7889 13.814 20.6924 17.1782 26.567C20.5425 32.4413 25.9986 36.4233 32.2967 37.9872C33.9567 31.4527 33.1787 24.5492 29.8144 18.6746C28.9487 17.1632 27.9444 15.7773 26.8229 14.5255C26.9298 13.9518 27.0567 13.3834 27.2031 12.821C28.6492 14.3178 29.9361 16.0202 31.0236 17.9196C34.8851 24.6621 35.4688 32.5461 33.2828 39.7092Z" fill="#04CD4E"></path><path fill-rule="evenodd" clip-rule="evenodd" d="M33.5934 39.3826C26.8423 41.9929 19.274 41.7475 12.6461 38.0293C6.01852 34.3115 1.64338 27.8572 0 20.5383C3.90137 19.0295 8.07575 18.4748 12.1837 18.9931C12.277 19.5056 12.3842 20.0155 12.5059 20.5222C8.91551 19.9884 5.22756 20.3238 1.69248 21.4875C3.47855 27.9856 7.53898 33.4938 13.3129 36.733C19.0871 39.9722 25.7267 40.466 31.9006 38.4331C30.1145 31.9353 26.0544 26.4268 20.2802 23.1876C18.7875 22.3503 17.2368 21.6969 15.6512 21.2227C15.4853 20.6786 15.3386 20.129 15.2114 19.5756C17.171 20.0855 19.0958 20.8528 20.947 21.8914C27.5749 25.6095 31.95 32.0634 33.5934 39.3826Z" fill="#04CD4E"></path><path fill-rule="evenodd" clip-rule="evenodd" d="M77.3035 26.3941L74.9508 22.7195C74.8906 22.6228 74.8604 22.4992 74.8604 22.3484C74.8604 22.1975 74.8906 22.0736 74.9508 21.9772L77.3217 18.2481C77.3819 18.1515 77.4784 18.0669 77.6111 17.9946C77.7438 17.922 77.8705 17.8859 77.9912 17.8859H80.9954C81.1158 17.8859 81.1943 17.922 81.2305 17.9946C81.2668 18.0669 81.2548 18.1515 81.1943 18.2481L78.7149 21.9772C78.6547 22.0857 78.6245 22.2095 78.6245 22.3484C78.6245 22.4872 78.6607 22.6048 78.7332 22.7012L81.2485 26.4125C81.309 26.5089 81.321 26.5935 81.2847 26.6657C81.2485 26.7383 81.1703 26.7744 81.0496 26.7744H77.9732C77.8525 26.7744 77.7258 26.7351 77.5931 26.6568C77.4604 26.5783 77.3639 26.4908 77.3035 26.3941ZM82.1534 26.3941L79.7828 22.7012C79.7226 22.6048 79.6923 22.4812 79.6923 22.3303C79.6923 22.1794 79.7226 22.0555 79.7828 21.9592L82.1717 18.2481C82.2319 18.1515 82.3284 18.0669 82.4611 17.9946C82.5938 17.922 82.7205 17.8859 82.8412 17.8859H85.8633C85.984 17.8859 86.0625 17.922 86.0985 17.9946C86.1347 18.0669 86.1227 18.1515 86.0625 18.2481L83.5832 21.9772C83.5227 22.0736 83.4927 22.1915 83.4927 22.3303C83.4927 22.4688 83.5289 22.5867 83.6012 22.6831L86.1167 26.4125C86.177 26.5089 86.189 26.5935 86.153 26.6657C86.1167 26.7383 86.0383 26.7744 85.9176 26.7744H82.8229C82.7025 26.7744 82.5758 26.7351 82.4431 26.6568C82.3104 26.5783 82.2139 26.4908 82.1534 26.3941ZM188.744 26.4125L191.259 22.6831C191.331 22.5867 191.368 22.4688 191.368 22.3303C191.368 22.1915 191.331 22.0736 191.259 21.9772L188.798 18.2481C188.738 18.1515 188.726 18.0669 188.762 17.9946C188.798 17.922 188.876 17.8859 188.997 17.8859H192.019C192.14 17.8859 192.267 17.922 192.399 17.9946C192.532 18.0669 192.628 18.1515 192.689 18.2481L195.078 21.9592C195.138 22.0555 195.168 22.1794 195.168 22.3303C195.168 22.4812 195.138 22.6048 195.078 22.7012L192.707 26.3941C192.646 26.4908 192.55 26.5783 192.417 26.6568C192.285 26.7351 192.158 26.7744 192.037 26.7744H188.943C188.822 26.7744 188.744 26.7383 188.707 26.6657C188.671 26.5935 188.683 26.5089 188.744 26.4125ZM193.612 26.4125L196.127 22.7012C196.2 22.6048 196.236 22.4872 196.236 22.3484C196.236 22.2095 196.206 22.0857 196.145 21.9772L193.666 18.2481C193.606 18.1515 193.594 18.0669 193.63 17.9946C193.666 17.922 193.745 17.8859 193.865 17.8859H196.869C196.99 17.8859 197.117 17.922 197.249 17.9946C197.382 18.0669 197.478 18.1515 197.539 18.2481L199.91 21.9772C199.97 22.0736 200 22.1975 200 22.3484C200 22.4992 199.97 22.6228 199.91 22.7195L197.557 26.3941C197.496 26.4908 197.4 26.5783 197.267 26.6568C197.135 26.7351 197.008 26.7744 196.887 26.7744H193.811C193.69 26.7744 193.612 26.7383 193.576 26.6657C193.539 26.5935 193.551 26.5089 193.612 26.4125ZM92.3057 24.077C92.185 24.077 92.0825 24.0348 91.9981 23.9502C91.9136 23.8659 91.8714 23.7632 91.8714 23.6427V21.1443C91.8714 21.0239 91.9136 20.9212 91.9981 20.8366C92.0825 20.7523 92.185 20.7101 92.3057 20.7101H96.4679C96.3232 20.4445 96.1483 20.197 95.9431 19.9678C95.6417 19.6541 95.2887 19.4005 94.8846 19.2075C94.4805 19.0145 94.0491 18.9178 93.5907 18.9178C92.891 18.9178 92.2937 19.0655 91.7992 19.3612C91.3043 19.6569 90.8822 20.0823 90.5324 20.6375C90.4719 20.7342 90.3814 20.8065 90.261 20.8547C90.1403 20.9031 90.0196 20.9031 89.8988 20.8547L87.329 19.8411C87.2206 19.7929 87.1481 19.7143 87.1121 19.6056C87.0759 19.4972 87.0879 19.3945 87.1481 19.2979C87.498 18.7429 87.8812 18.2329 88.2973 17.7683C88.7137 17.3037 89.1811 16.9084 89.6999 16.5826C90.2187 16.2568 90.7978 16.0033 91.437 15.8223C92.0765 15.6413 92.7943 15.5507 93.5907 15.5507C94.5559 15.5507 95.4606 15.7316 96.3053 16.0939C97.1497 16.4558 97.8885 16.9446 98.5221 17.5601C99.1553 18.1756 99.653 18.8998 100.015 19.7324C100.377 20.5653 100.558 21.4521 100.558 22.3934C100.558 23.335 100.377 24.2218 100.015 25.0547C99.653 25.8873 99.1553 26.6115 98.5221 27.227C97.8885 27.8425 97.1497 28.3312 96.3053 28.6932C95.4606 29.0554 94.5559 29.2364 93.5907 29.2364C92.8185 29.2364 92.1128 29.1458 91.4733 28.9648C90.834 28.7838 90.2518 28.5303 89.727 28.2045C89.2022 27.8787 88.7285 27.4834 88.3064 27.0188C87.8841 26.5542 87.498 26.0382 87.1481 25.4709C87.0879 25.3625 87.0759 25.2566 87.1121 25.1542C87.1481 25.0516 87.2206 24.9761 87.329 24.9279L89.8988 23.9141C90.0196 23.8659 90.1371 23.8659 90.2518 23.9141C90.3663 23.9625 90.4539 24.0348 90.5141 24.1315C90.828 24.6383 91.2532 25.0516 91.79 25.3714C92.3268 25.6912 92.927 25.8512 93.5907 25.8512C94.0491 25.8512 94.4805 25.7545 94.8846 25.5615C95.2887 25.3685 95.6417 25.1149 95.9431 24.8012C96.1483 24.5841 96.3232 24.3426 96.4679 24.077H92.3057ZM109.299 28.6751L105.788 24.747C105.704 24.6503 105.634 24.6142 105.58 24.6383C105.525 24.6624 105.498 24.7349 105.498 24.8554V28.5664C105.498 28.6872 105.456 28.7899 105.372 28.8742C105.287 28.9588 105.185 29.001 105.064 29.001H102.35C102.217 29.001 102.111 28.9588 102.033 28.8742C101.954 28.7899 101.915 28.6872 101.915 28.5664V16.1842C101.915 16.0638 101.954 15.9611 102.033 15.8765C102.111 15.7922 102.217 15.7497 102.35 15.7497H105.064C105.185 15.7497 105.287 15.7922 105.372 15.8765C105.456 15.9611 105.498 16.0638 105.498 16.1842V20.3479C105.498 20.4686 105.522 20.538 105.571 20.5561C105.619 20.5742 105.679 20.5349 105.752 20.4385L109.009 16.1119C109.082 16.0153 109.184 15.9338 109.317 15.8676C109.449 15.8011 109.582 15.7681 109.715 15.7681H113.171C113.304 15.7681 113.388 15.8252 113.425 15.9399C113.461 16.0546 113.443 16.1601 113.37 16.2568L108.611 22.2124C108.539 22.3091 108.505 22.4207 108.511 22.5474C108.517 22.6742 108.563 22.7797 108.647 22.8641C109.057 23.3106 109.492 23.7753 109.95 24.2582C110.409 24.7409 110.864 25.2265 111.316 25.7153C111.769 26.2043 112.215 26.687 112.656 27.1636C113.096 27.6403 113.515 28.0837 113.913 28.4942C113.998 28.5908 114.028 28.6992 114.004 28.82C113.98 28.9407 113.901 29.001 113.769 29.001H110.022C109.89 29.001 109.754 28.9708 109.616 28.9106C109.477 28.8501 109.371 28.7718 109.299 28.6751ZM114.221 22.3753C114.221 21.434 114.402 20.5469 114.764 19.7143C115.126 18.8817 115.614 18.1543 116.23 17.5328C116.845 16.9113 117.569 16.4197 118.401 16.0575C119.234 15.6955 120.121 15.5145 121.062 15.5145C122.003 15.5145 122.89 15.6955 123.722 16.0575C124.554 16.4197 125.281 16.9113 125.903 17.5328C126.524 18.1543 127.015 18.8817 127.377 19.7143C127.739 20.5469 127.92 21.434 127.92 22.3753C127.92 23.3167 127.739 24.2038 127.377 25.0366C127.015 25.8693 126.524 26.5963 125.903 27.2179C125.281 27.8394 124.554 28.3312 123.722 28.6932C122.89 29.0554 122.003 29.2364 121.062 29.2364C120.121 29.2364 119.234 29.0554 118.401 28.6932C117.569 28.3312 116.845 27.8394 116.23 27.2179C115.614 26.5963 115.126 25.8693 114.764 25.0366C114.402 24.2038 114.221 23.3167 114.221 22.3753ZM117.804 22.3753C117.804 22.8339 117.889 23.2685 118.058 23.6789C118.226 24.089 118.459 24.4513 118.754 24.765C119.05 25.0788 119.397 25.3292 119.795 25.5162C120.193 25.7032 120.615 25.7967 121.062 25.7967C121.508 25.7967 121.93 25.7032 122.328 25.5162C122.727 25.3292 123.076 25.0788 123.378 24.765C123.68 24.4513 123.915 24.089 124.084 23.6789C124.253 23.2685 124.337 22.8339 124.337 22.3753C124.337 21.9288 124.253 21.4974 124.084 21.081C123.915 20.6648 123.68 20.3026 123.378 19.9948C123.076 19.6871 122.727 19.4398 122.328 19.2528C121.93 19.0655 121.508 18.972 121.062 18.972C120.615 18.972 120.193 19.0655 119.795 19.2528C119.397 19.4398 119.05 19.6871 118.754 19.9948C118.459 20.3026 118.226 20.6648 118.058 21.081C117.889 21.4974 117.804 21.9288 117.804 22.3753ZM135.394 23.8599H129.622C129.501 23.8599 129.398 23.8177 129.314 23.7331C129.229 23.6488 129.187 23.5461 129.187 23.4253V20.9814C129.187 20.8486 129.229 20.7431 129.314 20.6648C129.398 20.5862 129.501 20.5469 129.622 20.5469H135.394C135.515 20.5469 135.618 20.5862 135.702 20.6648C135.786 20.7431 135.829 20.8486 135.829 20.9814V23.4253C135.829 23.5461 135.786 23.6488 135.702 23.7331C135.618 23.8177 135.515 23.8599 135.394 23.8599ZM146.614 19.0807H144.081C143.96 19.0807 143.858 19.1229 143.773 19.2075C143.689 19.2918 143.646 19.3945 143.646 19.5153V28.5664C143.646 28.6872 143.607 28.7899 143.529 28.8742C143.45 28.9588 143.345 29.001 143.212 29.001H140.498C140.377 29.001 140.274 28.9588 140.19 28.8742C140.105 28.7899 140.063 28.6872 140.063 28.5664V19.5153C140.063 19.3945 140.024 19.2918 139.946 19.2075C139.867 19.1229 139.762 19.0807 139.629 19.0807H137.059C136.939 19.0807 136.836 19.0386 136.751 18.954C136.667 18.8696 136.625 18.767 136.625 18.6462V16.1842C136.625 16.0638 136.667 15.9611 136.751 15.8765C136.836 15.7922 136.939 15.7497 137.059 15.7497H146.614C146.747 15.7497 146.853 15.7922 146.931 15.8765C147.01 15.9611 147.049 16.0638 147.049 16.1842V18.6462C147.049 18.767 147.01 18.8696 146.931 18.954C146.853 19.0386 146.747 19.0807 146.614 19.0807ZM152.351 16.1662C152.399 16.0575 152.481 15.964 152.595 15.8857C152.71 15.8071 152.834 15.7681 152.966 15.7681H155.5C155.621 15.7681 155.738 15.8071 155.853 15.8857C155.967 15.964 156.049 16.0575 156.097 16.1662L161.381 28.4761C161.43 28.5845 161.421 28.6992 161.354 28.82C161.288 28.9407 161.158 29.001 160.965 29.001H157.87C157.738 29.001 157.614 28.9619 157.499 28.8834C157.385 28.8048 157.297 28.7113 157.237 28.6028L156.749 27.5167C156.688 27.408 156.601 27.3145 156.486 27.2359C156.372 27.1576 156.254 27.1183 156.133 27.1183H152.315C152.182 27.1183 152.058 27.1576 151.944 27.2359C151.829 27.3145 151.748 27.408 151.699 27.5167L151.193 28.6028C151.145 28.7113 151.063 28.8048 150.949 28.8834C150.834 28.9619 150.716 29.001 150.596 29.001H147.483C147.423 29.001 147.359 28.9889 147.293 28.9648C147.226 28.9407 147.172 28.9046 147.13 28.8561C147.088 28.8079 147.061 28.7477 147.049 28.6751C147.037 28.6028 147.055 28.5183 147.103 28.4216L152.351 16.1662ZM153.419 24.0408H155.029C155.15 24.0408 155.238 24.0016 155.292 23.9232C155.346 23.8447 155.343 23.7512 155.283 23.6427C155.162 23.341 155.017 22.988 154.848 22.5836C154.679 22.1794 154.523 21.8023 154.378 21.4521C154.329 21.3437 154.275 21.2892 154.215 21.2892C154.155 21.2892 154.1 21.3437 154.052 21.4521L153.147 23.6427C153.099 23.7512 153.099 23.8447 153.147 23.9232C153.196 24.0016 153.286 24.0408 153.419 24.0408ZM168.228 25.4347H166.647C166.527 25.4347 166.424 25.4769 166.34 25.5615C166.255 25.6459 166.213 25.7485 166.213 25.8693V28.5664C166.213 28.6872 166.171 28.7899 166.086 28.8742C166.002 28.9588 165.902 29.001 165.782 29.001H163.061C162.941 29.001 162.841 28.9588 162.757 28.8742C162.672 28.7899 162.63 28.6872 162.63 28.5664V16.1842C162.63 16.0638 162.672 15.9611 162.757 15.8765C162.841 15.7922 162.944 15.7497 163.064 15.7497H168.602C169.278 15.7497 169.914 15.8765 170.511 16.13C171.108 16.3836 171.627 16.7335 172.067 17.18C172.508 17.6266 172.858 18.1454 173.117 18.7368C173.376 19.3282 173.506 19.9618 173.506 20.6375C173.506 21.3133 173.397 21.944 173.18 22.5293C172.963 23.1147 172.632 23.6215 172.191 24.05C171.751 24.4782 171.199 24.8164 170.541 25.0636C169.881 25.3111 169.109 25.4347 168.228 25.4347ZM168.358 19.0807H166.651C166.53 19.0807 166.424 19.1229 166.34 19.2075C166.255 19.2918 166.213 19.3916 166.213 19.5121V21.6362C166.213 21.757 166.255 21.8565 166.34 21.9411C166.424 22.0254 166.53 22.0676 166.651 22.0676H168.596C169.057 22.0676 169.392 21.9199 169.603 21.6273C169.817 21.3316 169.923 20.9995 169.923 20.6284C169.923 20.4353 169.89 20.2483 169.823 20.0613C169.757 19.8743 169.658 19.7114 169.522 19.5666C169.389 19.4217 169.226 19.307 169.033 19.2164C168.837 19.126 168.614 19.0807 168.358 19.0807ZM178.827 16.1662C178.875 16.0575 178.956 15.964 179.071 15.8857C179.185 15.8071 179.309 15.7681 179.442 15.7681H181.976C182.096 15.7681 182.214 15.8071 182.328 15.8857C182.443 15.964 182.524 16.0575 182.573 16.1662L187.857 28.4761C187.905 28.5845 187.896 28.6992 187.83 28.82C187.763 28.9407 187.634 29.001 187.441 29.001H184.346C184.214 29.001 184.09 28.9619 183.975 28.8834C183.861 28.8048 183.773 28.7113 183.713 28.6028L183.224 27.5167C183.164 27.408 183.076 27.3145 182.962 27.2359C182.847 27.1576 182.73 27.1183 182.609 27.1183H178.791C178.658 27.1183 178.534 27.1576 178.42 27.2359C178.305 27.3145 178.223 27.408 178.175 27.5167L177.668 28.6028C177.62 28.7113 177.539 28.8048 177.424 28.8834C177.309 28.9619 177.192 29.001 177.071 29.001H173.959C173.898 29.001 173.835 28.9889 173.768 28.9648C173.702 28.9407 173.648 28.9046 173.606 28.8561C173.564 28.8079 173.536 28.7477 173.524 28.6751C173.512 28.6028 173.53 28.5183 173.579 28.4216L178.827 16.1662ZM179.894 24.0408H181.505C181.626 24.0408 181.713 24.0016 181.767 23.9232C181.822 23.8447 181.819 23.7512 181.758 23.6427C181.638 23.341 181.493 22.988 181.324 22.5836C181.155 22.1794 180.998 21.8023 180.854 21.4521C180.805 21.3437 180.751 21.2892 180.691 21.2892C180.63 21.2892 180.576 21.3437 180.528 21.4521L179.623 23.6427C179.575 23.7512 179.575 23.8447 179.623 23.9232C179.671 24.0016 179.762 24.0408 179.894 24.0408Z" fill="#04CD4E"></path></svg> 